<svg width="56" height="39" viewBox="0 0 56 39" fill="none" xmlns="http://www.w3.org/2000/svg">
<path id="Vector" d="M7 32.3077C7 33.8174 7.63214 35.2652 8.75736 36.3328C9.88258 37.4003 11.4087 38 13 38C14.5913 38 16.1174 37.4003 17.2426 36.3328C18.3679 35.2652 19 33.8174 19 32.3077M7 32.3077C7 30.798 7.63214 29.3501 8.75736 28.2826C9.88258 27.2151 11.4087 26.6154 13 26.6154C14.5913 26.6154 16.1174 27.2151 17.2426 28.2826C18.3679 29.3501 19 30.798 19 32.3077M7 32.3077H1V15.2308M19 32.3077H37M37 32.3077C37 33.8174 37.6321 35.2652 38.7574 36.3328C39.8826 37.4003 41.4087 38 43 38C44.5913 38 46.1174 37.4003 47.2426 36.3328C48.3679 35.2652 49 33.8174 49 32.3077M37 32.3077C37 30.798 37.6321 29.3501 38.7574 28.2826C39.8826 27.2151 41.4087 26.6154 43 26.6154C44.5913 26.6154 46.1174 27.2151 47.2426 28.2826C48.3679 29.3501 49 30.798 49 32.3077M49 32.3077H55V20.9231C55 19.4134 54.3679 17.9655 53.2426 16.898C52.1174 15.8305 50.5913 15.2308 49 15.2308H46M1 15.2308L7 1H34L46 15.2308M1 15.2308H46M28 15.2308V1" stroke="#E49756" stroke-width="2" stroke-linecap="round" stroke-linejoin="round"/>
</svg>
