<svg width="30" height="30" viewBox="0 0 41 35" fill="none" xmlns="http://www.w3.org/2000/svg">
<path id="Vector" d="M26.1078 0L26.3455 0.0116667C30.2373 0.427778 33.161 1.31833 35.9418 3.26472C36.2736 3.4977 36.5243 3.82959 36.6587 4.21361C40.2839 14.5483 41.2443 23.6328 39.4626 28.0914C37.5244 31.99 34.4268 35 30.9716 35C29.5571 35 27.7001 33.1178 26.473 31.0236C27.8427 30.7728 29.199 30.4528 30.5369 30.065C30.781 29.9948 31.009 29.8769 31.2078 29.718C31.4066 29.5591 31.5724 29.3624 31.6957 29.139C31.819 28.9157 31.8973 28.6701 31.9263 28.4163C31.9552 28.1624 31.9342 27.9054 31.8644 27.6597C31.7946 27.4141 31.6774 27.1847 31.5195 26.9846C31.3616 26.7845 31.1661 26.6177 30.9442 26.4937C30.7222 26.3696 30.4781 26.2908 30.2259 26.2616C29.9736 26.2325 29.7182 26.2537 29.474 26.3239C23.0585 28.1711 17.6284 28.1711 11.2129 26.3239C10.7199 26.1821 10.191 26.2431 9.74275 26.4937C9.29447 26.7442 8.96345 27.1636 8.82251 27.6597C8.68157 28.1558 8.74226 28.6879 8.99123 29.139C9.24019 29.5901 9.65704 29.9232 10.1501 30.065C11.5356 30.4617 12.8863 30.7844 14.2139 31.0256C12.9868 33.1158 11.1298 35 9.71528 35C6.26015 35 3.16252 31.99 1.15863 27.9436C-0.557343 23.6328 0.40499 14.5464 4.02823 4.21361C4.16259 3.82959 4.41335 3.4977 4.74515 3.26472C7.52587 1.31833 10.4496 0.427778 14.3414 0.0116667C14.6905 -0.0258074 15.0432 0.0331325 15.3615 0.182156C15.6799 0.331179 15.9518 0.564654 16.1482 0.8575L16.27 1.06556L17.528 3.56417L17.7927 3.53306C19.4907 3.35806 21.202 3.35806 22.9 3.53306L23.159 3.56417L24.415 1.0675C24.5556 0.787096 24.7615 0.545118 25.0152 0.362262C25.269 0.179405 25.563 0.0611125 25.872 0.0175001L26.1078 0ZM14.5463 13.6111C13.6227 13.6111 12.7297 13.9438 12.0289 14.5491C11.3281 15.1544 10.8658 15.9922 10.7259 16.9108L10.6911 17.2103L10.6815 17.5L10.6911 17.7917C10.7475 18.5462 11.0215 19.2678 11.4794 19.868C11.9373 20.4682 12.5592 20.921 13.269 21.1708C13.9789 21.4206 14.7457 21.4567 15.4755 21.2745C16.2054 21.0923 16.8666 20.6998 17.3781 20.1452C17.8896 19.5905 18.2291 18.8977 18.3552 18.1518C18.4812 17.4058 18.3882 16.6391 18.0876 15.9455C17.787 15.2519 17.2919 14.6616 16.6629 14.247C16.0338 13.8323 15.2983 13.6114 14.5463 13.6111ZM26.1406 13.6111C25.2171 13.6111 24.324 13.9438 23.6232 14.5491C22.9224 15.1544 22.4602 15.9922 22.3203 16.9108L22.2855 17.2103L22.2759 17.5L22.2855 17.7917C22.3419 18.5462 22.6159 19.2678 23.0737 19.868C23.5316 20.4682 24.1536 20.921 24.8634 21.1708C25.5732 21.4206 26.3401 21.4567 27.0699 21.2745C27.7998 21.0923 28.461 20.6998 28.9725 20.1452C29.4839 19.5905 29.8235 18.8977 29.9496 18.1518C30.0756 17.4058 29.9826 16.6391 29.682 15.9455C29.3814 15.2519 28.8863 14.6616 28.2572 14.247C27.6282 13.8323 26.8926 13.6114 26.1406 13.6111Z" fill="#183048"/>
</svg>
