<svg width="39" height="40" viewBox="0 0 39 40" fill="none" xmlns="http://www.w3.org/2000/svg">
<g id="&#240;&#159;&#166;&#134; icon &#34;home alt slim horizontal&#34;">
<path id="Vector (Stroke)" fill-rule="evenodd" clip-rule="evenodd" d="M18.7069 0.963968C19.1471 0.662076 19.7008 0.662076 20.141 0.963968L38.1896 13.3419C38.8377 13.7863 39.042 14.7362 38.646 15.4634C38.2499 16.1907 37.4036 16.42 36.7555 15.9755L19.424 4.08935L2.09239 15.9755C1.44436 16.42 0.597977 16.1907 0.201954 15.4634C-0.194069 14.7362 0.0102294 13.7863 0.658267 13.3419L18.7069 0.963968Z" fill="black"/>
<path id="Vector (Stroke)_2" fill-rule="evenodd" clip-rule="evenodd" d="M5.38685 20.9924C6.14632 20.9924 6.76199 21.6834 6.76199 22.5357V36.7462H32.0874V22.5357C32.0874 21.6834 32.703 20.9924 33.4625 20.9924C34.222 20.9924 34.8376 21.6834 34.8376 22.5357V36.9391C34.8376 38.5372 33.6833 39.8326 32.2593 39.8326H6.59009C5.16614 39.8326 4.01172 38.5373 4.01172 36.9391V22.5357C4.01172 21.6834 4.62739 20.9924 5.38685 20.9924Z" fill="black"/>
<path id="Vector (Stroke)_3" fill-rule="evenodd" clip-rule="evenodd" d="M14.0376 29.2871C14.0376 28.4348 14.6533 27.7439 15.4127 27.7439H23.4343C24.1938 27.7439 24.8095 28.4348 24.8095 29.2871C24.8095 30.1394 24.1938 30.8303 23.4343 30.8303H15.4127C14.6533 30.8303 14.0376 30.1394 14.0376 29.2871Z" fill="black"/>
</g>
</svg>
