<svg width="70" height="50" viewBox="0 0 178 68" fill="none" xmlns="http://www.w3.org/2000/svg">
<g filter="url(#filter0_d_710_1089)">
</g>
<path d="M71.3287 43.1132C71.3287 43.1132 71.008 42.1163 70.4447 41.5763C69.8813 41.0364 65.5393 36.8744 64.898 36.2596C64.2567 35.6449 63 34.4486 63 32.7041C63 30.9595 64.534 29.7134 66.3887 28.999C68.2433 28.2845 98.4033 16.5545 100.639 15.6573C102.875 14.7601 106.091 13.3811 107.547 12.7165C109.003 12.0519 113.128 10.1807 113.264 10.1101C113.401 10.0395 113.475 10 113.54 10C113.605 10 113.665 10.054 113.665 10.1246C113.665 10.1952 113.618 10.2928 113.602 10.3406C113.587 10.3884 112.339 13.946 111.351 15.1589C110.363 16.3718 109.878 16.8868 105.146 18.4818C100.414 20.0768 68.8153 30.7103 68.018 31.0094C67.2207 31.3084 65.418 31.8401 65.418 33.1194C65.418 34.1496 66.4926 34.9471 66.8046 35.2129C67.1166 35.4787 75.61 43.1132 75.61 43.1132L71.3287 43.1132Z" fill="black"/>
<path d="M67.6019 34.8598C67.6019 34.8598 66.8306 34.1745 66.7266 34.0748C66.6226 33.9751 66.3972 33.6013 66.3972 33.3354C66.3972 33.0696 66.4492 32.4299 67.6192 32.081C68.7892 31.7321 96.0979 23.1174 97.5886 22.6688C99.0792 22.2202 107.882 19.4206 109.449 18.7477C109.78 18.6106 109.839 18.5774 109.891 18.5774C109.943 18.5774 110.01 18.6085 110.01 18.6854C110.01 18.7622 109.973 18.8204 109.945 18.864C109.917 18.9076 108.409 21.8754 107.525 22.81C106.641 23.7446 105.848 24.405 104.236 24.7913C102.624 25.1776 77.4949 31.6573 77.3324 31.701C77.1699 31.7446 76.9814 31.8879 76.9814 32.081C76.9814 32.3988 77.2544 32.4237 77.2544 32.4237L67.6019 34.8598Z" fill="black"/>
<path d="M68.1609 35.3334L70.3839 37.3147L81.9149 35.2337C81.9149 35.2337 81.6159 35.053 81.6159 34.8443C81.6159 34.6356 81.7914 34.4985 82.0026 34.458C82.2139 34.4175 98.9319 31.3085 99.9719 31.134C101.012 30.9596 102.381 30.6688 103.499 29.3729C104.617 28.0769 105.702 26.3459 105.737 26.2929C105.773 26.2399 105.786 26.2088 105.786 26.1776C105.786 26.1465 105.767 26.0686 105.682 26.0686C105.598 26.0686 105.552 26.0873 105.468 26.1184C105.383 26.1496 68.1609 35.3334 68.1609 35.3334Z" fill="black"/>
<path d="M100.856 32.4175C100.809 32.4278 70.9126 37.7965 70.9126 37.7965L73.5039 40.0935L87.3316 38.4237C87.3316 38.4237 87.0716 38.3324 87.0716 38.0748C87.0716 37.8173 87.3273 37.7217 87.4746 37.6968C87.622 37.6719 94.59 36.6916 95.409 36.5753C96.228 36.459 97.5756 36.189 98.711 35.0426C99.8463 33.8962 100.964 32.6251 101.008 32.5753C101.051 32.5254 101.057 32.4943 101.057 32.4694C101.057 32.4445 101.025 32.3926 100.96 32.3926C100.943 32.3926 100.904 32.4071 100.856 32.4175Z" fill="black"/>
<path d="M74.1194 40.6292L76.8927 43.1214H95.1967L88.35 39.0342L74.1194 40.6292Z" fill="black"/>
<path d="M73.1716 45.0156C73.2496 45.0073 73.9083 44.9159 73.9083 44.9159V44.1765H69.2312V44.9159C69.2312 44.9159 69.8899 45.0073 69.9679 45.0156C70.0459 45.0239 70.3926 45.0986 70.3926 45.4725V46.4113H66.7843V45.4725C66.7843 45.0986 67.1309 45.0239 67.2089 45.0156C67.2869 45.0073 67.9456 44.9159 67.9456 44.9159V44.1765H63.2686V44.9159C63.2686 44.9159 63.9272 45.0073 64.0052 45.0156C64.0832 45.0239 64.4299 45.0986 64.4299 45.4725V48.4944C64.4299 48.8683 64.0832 48.943 64.0052 48.9513C63.9272 48.9596 63.2686 49.0298 63.2686 49.0298V49.7692H67.9456V49.0298C67.9456 49.0298 67.2869 48.9596 67.2089 48.9513C67.1309 48.943 66.7843 48.8683 66.7843 48.4944V47.5494H70.3926V48.4944C70.3926 48.8683 70.0459 48.943 69.9679 48.9513C69.8899 48.9596 69.2312 49.0298 69.2312 49.0298V49.7692H73.9083V49.0298C73.9083 49.0298 73.2496 48.9596 73.1716 48.9513C73.0936 48.943 72.747 48.8683 72.747 48.4944V45.4725C72.747 45.0986 73.0936 45.0239 73.1716 45.0156Z" fill="black"/>
<path d="M78.9294 43.9939C75.9134 43.9939 74.1541 45.0431 74.1541 46.9876C74.1541 48.9322 75.9134 49.9813 78.9294 49.9813C81.9454 49.9813 83.7047 48.9322 83.7047 46.9876C83.7047 45.0431 81.9454 43.9939 78.9294 43.9939ZM78.9294 48.9483C78.3401 48.9483 76.8581 48.9648 76.8581 46.9876C76.8581 45.0105 78.3401 45.027 78.9294 45.027C79.5187 45.027 81.0007 45.0105 81.0007 46.9876C81.0007 48.9648 79.5187 48.9483 78.9294 48.9483Z" fill="black"/>
<path d="M90.5384 44.1682H94.2954V44.9159C94.2954 44.9159 93.6411 44.9782 93.5143 44.9938C93.3876 45.0094 93.1081 45.1309 93.1081 45.4735C93.1081 45.8162 93.1081 49.5576 93.1081 49.7757C93.1081 49.7757 90.3434 49.7757 90.2047 49.7757C90.066 49.7757 89.8646 49.7383 89.7476 49.6013C89.6306 49.4642 86.5691 45.6262 86.5691 45.6262C86.5691 45.9689 86.5691 48.324 86.5691 48.5421C86.5691 48.7601 86.7933 48.9066 86.9591 48.9284C87.1248 48.9502 87.7521 49.026 87.7521 49.026V49.7757L83.9907 49.7757V49.0281C83.9907 49.0281 84.6451 48.9657 84.7718 48.9502C84.8986 48.9346 85.1781 48.8131 85.1781 48.4704C85.1781 48.1277 85.1781 45.6262 85.1781 45.4081C85.1781 45.19 84.9538 45.0436 84.7881 45.0218C84.6223 45 83.9951 44.9346 83.9951 44.9346V44.1682C83.9951 44.1682 87.9427 44.1682 88.0814 44.1682C88.2201 44.1682 88.4216 44.2056 88.5386 44.3427C88.6556 44.4798 91.7171 48.3178 91.7171 48.3178C91.7171 47.9751 91.7171 45.62 91.7171 45.4019C91.7171 45.1838 91.4928 45.0374 91.3271 45.0156C91.1613 44.9938 90.5384 44.9284 90.5384 44.9284" fill="black"/>
<path d="M100.743 44.1682C99.6099 44.1682 94.6896 44.1682 94.6896 44.1682V44.9346C94.6896 44.9346 95.3169 45 95.4826 45.0218C95.6484 45.0436 95.8726 45.19 95.8726 45.4081C95.8726 45.6262 95.8726 48.1277 95.8726 48.4704C95.8726 48.8131 95.5931 48.9346 95.4664 48.9501C95.3396 48.9657 94.6853 49.0281 94.6853 49.0281V49.7757L100.743 49.7757C102.704 49.7757 104.359 48.9034 104.359 46.947C104.359 44.9906 102.494 44.1682 100.743 44.1682ZM100.154 48.7124H98.1433V45.2482C98.1433 45.2482 99.4173 45.2482 100.163 45.2482C100.908 45.2482 101.653 45.4891 101.653 46.9512C101.653 48.4133 101.064 48.7124 100.154 48.7124Z" fill="black"/>
<path d="M114.168 48.9438C113.866 48.9127 113.71 48.6354 113.671 48.5794C113.632 48.5233 110.908 44.5389 110.801 44.3893C110.694 44.2398 110.479 44.1775 110.369 44.1775C110.258 44.1775 105.848 44.1775 105.848 44.1775V44.9376C105.848 44.9376 106.807 45.028 106.927 45.0404C107.047 45.0529 107.171 45.2647 107.171 45.3364C107.171 45.408 107.128 45.4766 107.102 45.5202C107.076 45.5638 105.156 48.57 105.055 48.7195C104.954 48.8691 104.785 48.9376 104.662 48.947C104.538 48.9563 103.898 49.0114 103.898 49.0114V49.7756H107.625V49.0363L106.871 48.9449C106.702 48.9158 106.654 48.7331 106.654 48.6874C106.654 48.6417 106.68 48.5711 106.728 48.5005C106.738 48.4845 106.847 48.3157 107.009 48.0643H110.606C110.779 48.3157 110.896 48.4845 110.906 48.5005C110.954 48.5711 110.98 48.6417 110.98 48.6874C110.98 48.7331 110.932 48.9158 110.763 48.9449L109.904 49.0114V49.7756H114.957V49.0363C114.957 49.0363 114.47 48.975 114.168 48.9438ZM107.641 47.0841C108.176 46.2528 108.747 45.3644 108.747 45.3644C108.747 45.3644 109.359 46.2528 109.931 47.0841H107.641Z" fill="black"/>
<defs>
<filter id="filter0_d_710_1089" x="0" y="0" width="178" height="68" filterUnits="userSpaceOnUse" color-interpolation-filters="sRGB">
<feFlood flood-opacity="0" result="BackgroundImageFix"/>
<feColorMatrix in="SourceAlpha" type="matrix" values="0 0 0 0 0 0 0 0 0 0 0 0 0 0 0 0 0 0 127 0" result="hardAlpha"/>
<feOffset dy="4"/>
<feGaussianBlur stdDeviation="2"/>
<feComposite in2="hardAlpha" operator="out"/>
<feColorMatrix type="matrix" values="0 0 0 0 0 0 0 0 0 0 0 0 0 0 0 0 0 0 0.25 0"/>
<feBlend mode="normal" in2="BackgroundImageFix" result="effect1_dropShadow_710_1089"/>
<feBlend mode="normal" in="SourceGraphic" in2="effect1_dropShadow_710_1089" result="shape"/>
</filter>
</defs>
</svg>
