<svg width="30" height="30" viewBox="0 0 41 40" fill="none" xmlns="http://www.w3.org/2000/svg">
<g id="instagram">
<path id="Vector" d="M28.667 3.3335H12.0003C7.39795 3.3335 3.66699 7.06446 3.66699 11.6668V28.3335C3.66699 32.9359 7.39795 36.6668 12.0003 36.6668H28.667C33.2694 36.6668 37.0003 32.9359 37.0003 28.3335V11.6668C37.0003 7.06446 33.2694 3.3335 28.667 3.3335Z" stroke="#183048" stroke-width="2" stroke-linecap="round" stroke-linejoin="round"/>
<path id="Vector_2" d="M27 18.95C27.2057 20.3371 26.9688 21.7537 26.3229 22.9984C25.6771 24.243 24.6552 25.2524 23.4027 25.8828C22.1502 26.5132 20.7307 26.7327 19.3463 26.5099C17.9619 26.2871 16.6829 25.6335 15.6914 24.6419C14.6999 23.6504 14.0462 22.3715 13.8234 20.987C13.6007 19.6026 13.8201 18.1832 14.4505 16.9306C15.081 15.6781 16.0903 14.6562 17.335 14.0104C18.5796 13.3646 19.9963 13.1277 21.3833 13.3333C22.7982 13.5432 24.1081 14.2025 25.1195 15.2139C26.1309 16.2253 26.7902 17.5351 27 18.95Z" stroke="#183048" stroke-width="2" stroke-linecap="round" stroke-linejoin="round"/>
<path id="Vector_3" d="M29.5 10.8335H29.5167" stroke="#183048" stroke-width="2" stroke-linecap="round" stroke-linejoin="round"/>
</g>
</svg>
