<svg width="60" height="35" viewBox="0 0 120 35" fill="none" xmlns="http://www.w3.org/2000/svg">
<g id="Mclaren">
<path id="Vector" d="M62.8515 16.8981C62.8515 17.4268 62.6406 17.8101 61.9878 17.8101H57.8205C57.2832 17.8101 56.9767 17.6383 56.9767 17.0875C56.9767 16.5368 57.1877 16.2636 57.8205 16.2636H62.8515V16.8981ZM81.2282 14.695V14.1002C81.2282 13.5494 81.4391 13.1881 82.1118 13.1881H86.279C86.8522 13.1881 87.1388 13.3775 87.1388 13.9724C87.1388 14.4791 86.9119 14.7126 86.3188 14.7126L81.2282 14.695ZM92.1698 10.6105V20.3481H96.3848V13.2762H99.8237C100.994 13.2762 101.587 13.6816 101.587 14.9285V20.3701H105.794V14.5452C105.794 11.8134 104.433 10.6281 100.592 10.6281L92.1698 10.6105ZM81.8212 10.6105C78.434 10.6105 77.0768 11.8574 77.0768 14.673V16.6028C77.0768 19.035 78.434 20.3481 81.4948 20.3481H90.3906V17.8057H82.3187C81.5227 17.8057 81.2481 17.5502 81.2481 16.8937V16.4927H87.6164C89.8135 16.4927 91.0553 15.7304 91.0553 13.9107V13.4701C91.0553 11.8178 90.311 10.6325 86.5815 10.6325L81.8212 10.6105ZM68.2885 20.3481H72.4956V13.9724C72.4956 13.5318 72.6508 13.2718 73.1682 13.2718H76.4201V10.6281H71.7433C69.2358 10.6281 68.2805 11.6635 68.2805 13.3996L68.2885 20.3481ZM53.908 10.6105V13.1749H61.8087C62.6047 13.1749 62.8635 13.4745 62.8635 14.109V14.4835H56.519C53.8602 14.4835 53.0602 15.6952 53.0602 17.2373V17.6163C53.0602 19.7576 54.6085 20.3481 57.6494 20.3481H62.3182C65.6257 20.3481 67.0586 19.5241 67.0586 16.6425V14.3954C67.0586 11.9588 65.7013 10.6281 62.6246 10.6281L53.908 10.6105ZM28.7292 16.0477C28.7292 19.132 30.1421 20.3657 33.796 20.3657H41.8121V17.722H34.4089C33.5293 17.722 32.9362 17.2814 32.9362 15.8802V15.0519C32.9362 13.8005 33.4895 13.2894 34.389 13.2894H41.8121V10.6457H33.6805C30.0984 10.6457 28.7292 12.3157 28.7292 14.9858V16.0477ZM43.0579 9.08154V20.3657H52.2124V17.722H47.277V9.08154H43.0579ZM16.7885 15.3912V9.08154H14.4004C12.9277 9.08154 12.0879 9.73365 11.2162 10.5003L0 20.3657H5.06681L12.5297 13.6772V20.3657H16.0283L23.2564 13.6331V20.3657H27.5431V9.08154H25.2067C23.945 9.08154 23.0653 9.65434 22.1857 10.4563L16.7885 15.3912Z" fill="black"/>
<path id="Vector_2" d="M115.912 0.88623C113.563 0.88623 110.256 1.66171 106.67 3.11574C103.463 4.40629 100.394 6.08025 97.5151 8.10791C100.276 6.98465 103.187 6.38147 106.128 6.32342C110.244 6.32342 113.173 8.08588 108.847 14.1796C121.583 4.92667 121.253 0.908261 115.912 0.908261" fill="#FF9800"/>
<path id="Vector_3" d="M23.4514 30.1167H26.0624V30.9671H24.2793V31.9717H25.8714V32.8265H24.2793V34.5889H23.4514V30.1167ZM29.2267 32.3947V32.3198C29.2267 30.9715 29.9909 30.0286 31.0656 30.0286C32.1402 30.0286 32.8965 30.9627 32.8965 32.3065V32.3814C32.8965 33.7033 32.1283 34.6726 31.0576 34.6726C29.9869 34.6726 29.2267 33.7341 29.2267 32.3947ZM32.0129 32.3947V32.3198C32.0129 31.4385 31.6148 30.879 31.0457 30.879C30.4765 30.879 30.0904 31.4385 30.0904 32.3198V32.3638C30.0904 33.2451 30.4884 33.809 31.0656 33.809C31.6427 33.809 32.0248 33.2539 32.0248 32.3726L32.0129 32.3947ZM36.3871 30.1167H37.9115C38.1112 30.1062 38.3109 30.1397 38.4988 30.2153C38.6867 30.291 38.8591 30.4072 39.0061 30.5573C39.1237 30.696 39.2147 30.8596 39.2736 31.0384C39.3324 31.2171 39.3579 31.4072 39.3484 31.5972C39.3613 31.8764 39.296 32.1533 39.1613 32.3899C39.0267 32.6265 38.8293 32.8113 38.5961 32.919L39.4598 34.5845H38.5006L37.7523 33.1085H37.2269V34.5845H36.3831L36.3871 30.1167ZM37.8478 32.3198C37.9328 32.3321 38.0192 32.3237 38.1009 32.295C38.1827 32.2664 38.2577 32.2182 38.3207 32.1539C38.3837 32.0895 38.4332 32.0107 38.4657 31.9229C38.4982 31.835 38.5128 31.7404 38.5086 31.6456C38.5086 31.205 38.2578 30.9715 37.8319 30.9715H37.2309V32.3198H37.8478ZM42.8549 30.1167H43.7346L44.6381 31.9364L45.5336 30.1167H46.4172V34.5933H45.5933V31.7293L44.6381 33.5799L43.6868 31.7426V34.5933H42.8908L42.8549 30.1167ZM50.0432 32.8485V30.1167H50.887V32.8661C50.887 33.5006 51.1577 33.8134 51.5915 33.8134C52.0254 33.8134 52.3 33.505 52.3 32.8837V30.1167H53.1319V32.8397C53.1319 34.0778 52.5189 34.6771 51.5796 34.6771C50.6402 34.6771 50.0432 34.0822 50.0432 32.8485ZM56.7578 30.1167H57.5977V33.7518H59.2375V34.6066H56.7578V30.1167ZM63.8824 30.0814H64.6784L66.1352 34.5933H65.2755L64.965 33.6416H63.5719L63.2854 34.5933H62.4455L63.8824 30.0814ZM64.7103 32.8L64.2685 31.3372L63.8227 32.8H64.7103ZM74.1951 31.0288L73.5782 31.2138L73.4429 30.4075L74.43 30.0726H75.0111V34.5933H74.1832L74.1951 31.0288ZM83.7476 30.9671H82.7287V30.1167H85.6024V30.9979H84.5795V34.6242H83.7476V30.9671ZM88.9339 30.1167H91.5449V30.9539H89.7737V31.9232H91.3379V32.7604H89.7737V33.7606H91.5727V34.6021H88.9378L88.9339 30.1167ZM96.2574 30.0814H97.0535L98.5063 34.5933H97.6386L97.344 33.6416H95.947L95.6525 34.6154H94.8086L96.2574 30.0814ZM97.0853 32.8L96.6475 31.3372L96.2017 32.8H97.0853ZM101.818 30.1167H102.689L103.593 31.9364L104.496 30.1167H105.384V34.5933H104.56V31.7293L103.605 33.5799L102.654 31.7426V34.5933H101.834L101.818 30.1167Z" fill="black"/>
</g>
</svg>
