<svg width="50" height="35" viewBox="0 0 45 45" fill="none" xmlns="http://www.w3.org/2000/svg">
<g id="Mercedes benz">
<path id="outer_24_" d="M44.5078 22.5C44.5078 34.6641 34.6641 44.5078 22.5 44.5078C10.3359 44.5078 0.492188 34.6641 0.492188 22.5C0.492188 10.3359 10.3359 0.492188 22.5 0.492188C34.6641 0.492188 44.5078 10.3359 44.5078 22.5ZM22.5 1.82812C11.0391 1.82812 1.82812 11.0391 1.82812 22.5C1.82812 33.9609 11.1094 43.1719 22.5 43.1719C33.9609 43.1719 43.1719 33.8906 43.1719 22.5C43.1719 11.0391 33.9609 1.82812 22.5 1.82812Z" fill="url(#paint0_linear_710_369)"/>
<path id="Vector" d="M22.5 1.82812C11.0391 1.82812 1.82812 11.0391 1.82812 22.5C1.82812 33.9609 11.1094 43.1719 22.5 43.1719C33.9609 43.1719 43.1719 33.8906 43.1719 22.5C43.1719 11.0391 33.9609 1.82812 22.5 1.82812ZM22.5 41.8359C11.8125 41.8359 3.16406 33.1875 3.16406 22.5C3.16406 11.8125 11.8125 3.16406 22.5 3.16406C33.1875 3.16406 41.8359 11.8125 41.8359 22.5C41.8359 33.1875 33.1875 41.8359 22.5 41.8359Z" fill="url(#paint1_linear_710_369)"/>
<path id="Vector_2" opacity="0.4" d="M22.5 44.5078C34.6641 44.5078 44.5078 34.6641 44.5078 22.5C44.5078 10.3359 34.6641 0.492188 22.5 0.492188C10.3359 0.492188 0.492188 10.3359 0.492188 22.5C0.492188 34.6641 10.3359 44.5078 22.5 44.5078ZM22.5 0C34.875 0 45 10.125 45 22.5C45 34.875 34.875 45 22.5 45C10.125 45 0 34.875 0 22.5C0 10.125 10.125 0 22.5 0Z" fill="url(#paint2_linear_710_369)"/>
<path id="Vector_3" d="M1.54688 22.5703C1.54688 11.0391 10.8984 1.54688 22.5 1.54688C34.1016 1.54688 43.4531 10.9687 43.4531 22.5703C43.4531 34.1016 34.1016 43.4531 22.5 43.4531C10.8984 43.4531 1.54688 34.1016 1.54688 22.5703ZM8.08594 8.08594C4.35938 11.8125 2.03906 16.9453 2.03906 22.5703C2.03906 28.1953 4.35938 33.3281 8.01562 36.9844C11.7422 40.6406 16.875 42.9609 22.5 42.9609C28.125 42.9609 33.2578 40.7109 36.9141 36.9844C40.6406 33.3281 42.8906 28.1953 42.8906 22.5703C42.8906 16.9453 40.5703 11.8125 36.9141 8.08594C33.2578 4.35938 28.125 2.03906 22.5 2.03906C16.875 2.03906 11.7422 4.35938 8.08594 8.08594Z" fill="white"/>
<path id="Vector_4" opacity="0.4" d="M22.5 41.9062C17.2969 41.9062 12.4453 39.8672 8.78906 36.2109C5.13281 32.5547 3.09375 27.7031 3.09375 22.5C3.09375 17.2969 5.13281 12.4453 8.78906 8.78906C12.4453 5.13281 17.2969 3.09375 22.5 3.09375C27.7031 3.09375 32.5547 5.13281 36.2109 8.78906C39.8672 12.4453 41.9062 17.2969 41.9062 22.5C41.9062 27.7031 39.8672 32.5547 36.2109 36.2109C32.5547 39.8672 27.7031 41.9062 22.5 41.9062ZM22.5 41.3438C27.4922 41.3438 32.2734 39.375 35.7891 35.8594C39.375 32.2734 41.2734 27.5625 41.2734 22.5703C41.2734 17.5781 39.3047 12.7969 35.7891 9.28125C32.2031 5.69531 27.4922 3.79688 22.5 3.79688C17.5078 3.79688 12.7266 5.76562 9.21094 9.28125C5.625 12.7266 3.65625 17.5078 3.65625 22.5C3.65625 27.4922 5.625 32.2734 9.14063 35.7891C12.7266 39.375 17.5078 41.3438 22.5 41.3438Z" fill="url(#paint3_linear_710_369)"/>
<path id="Vector_5" d="M39.5859 31.6406C39.2344 31.3594 25.6641 20.6016 25.6641 20.6016L22.5 2.53125C22.2891 2.60156 22.0078 2.8125 21.8672 3.09375L19.6172 20.6719L5.625 31.4297C5.625 31.4297 5.34375 31.7813 5.20312 31.9922C5.13281 32.1328 5.13281 32.3438 5.13281 32.5547L22.4297 25.4531L39.7266 32.5547C39.8672 32.2031 39.7266 31.8516 39.5859 31.6406Z" fill="white"/>
<path id="Vector_6" d="M22.6406 23.0626L22.5 26.2969L38.3906 32.6954C38.9531 32.9766 39.375 32.836 39.7969 32.5548L22.8516 22.9923C22.7812 22.9219 22.6406 22.9923 22.6406 23.0626Z" fill="#565F64"/>
<path id="Vector_7" d="M22.6406 23.0626C22.6406 23.0626 23.5547 24.6798 24.6094 25.8048C26.0859 27.4219 28.0547 28.5469 28.0547 28.5469L38.3906 32.6954C38.9531 32.9766 39.375 32.836 39.7969 32.5548L22.8516 22.9923C22.7812 22.9219 22.6406 22.9923 22.6406 23.0626Z" fill="url(#paint4_linear_710_369)"/>
<path id="Vector_8" d="M39.7266 31.9219C39.7266 31.8516 39.6562 31.7812 39.5859 31.6406L25.1016 21.0234L23.1328 22.2891C23.1328 22.2891 23.2734 22.3594 23.3437 22.2891C23.5547 22.2188 23.9766 22.1484 24.3984 22.2891C24.75 22.4297 39.7266 31.9922 39.7266 31.9219C39.7266 31.9922 39.7266 31.9922 39.7266 31.9219Z" fill="#A4AAAE" fill-opacity="0.6"/>
<path id="Vector_9" d="M39.2344 31.2891L25.7344 20.6016L25.1016 21.0234L39.5859 31.7109C39.5156 31.5703 39.375 31.4297 39.2344 31.2891Z" fill="#333E46"/>
<path id="Vector_10" d="M22.8516 22.0078L22.7813 22.0781C22.7813 22.0781 22.7812 22.2188 22.9219 22.1484C22.9922 22.0781 25.0312 21.0234 25.7344 20.6016L23.2734 3.72656C23.2031 3.09375 22.9219 2.8125 22.4297 2.60156L22.7109 22.1484L22.8516 22.0078Z" fill="#565F64"/>
<path id="Vector_11" d="M21.6562 3.72656V4.64063L20.1094 20.1797C20.1094 20.3906 20.1797 20.6016 20.3906 20.7422L21.3047 21.4453L21.9375 4.28906L22.0078 2.95312C21.7969 3.09375 21.7266 3.375 21.6562 3.72656ZM20.8125 21.7266L19.9688 21.0234L5.69531 31.3594C5.69531 31.3594 5.27344 31.6406 5.20312 31.9219L5.69531 31.6406L20.6719 22.2188C20.9531 22.0781 21.0234 21.9375 20.8125 21.7266Z" fill="#A4AAAE" fill-opacity="0.6"/>
<path id="Vector_12" d="M22.2891 23.0626C22.2891 22.9923 22.2188 22.9219 22.1484 22.9923L5.13281 32.6251C5.55469 32.9063 5.97656 32.9766 6.53906 32.7657L22.4297 26.3673L22.2891 23.0626Z" fill="#565F64"/>
<path id="Vector_13" d="M22.7812 22.0781C22.7812 22.0781 22.7812 22.1484 22.8516 22.1484H22.9219C22.9922 22.0781 25.0312 21.0234 25.7344 20.6016L25.4531 18.5625L23.2734 3.72656C23.2734 3.44531 23.2031 3.23438 23.0625 3.09375C23.0625 3.09375 24.1172 17.2969 24.1172 18.8438C24.1172 20.8828 22.7812 22.0781 22.7812 22.0781Z" fill="url(#paint5_linear_710_369)"/>
<path id="Vector_14" d="M22.2891 23.0626C22.2891 22.9923 22.2188 22.9219 22.1484 22.9923L5.13281 32.6251C5.55469 32.9063 5.97656 32.9766 6.53906 32.7657L22.4297 26.3673L22.2891 23.0626Z" fill="url(#paint6_linear_710_369)" fill-opacity="0.8"/>
<path id="Vector_15" opacity="0.8" d="M6.53906 32.6953L22.4297 26.2969L22.2891 23.2031C22.0078 24.0469 21.5156 24.9609 20.1797 25.6641C19.1953 26.2266 9.77344 30.8672 6.39844 32.4844C6.1875 32.625 5.90625 32.6953 5.76562 32.7656C6.04688 32.9062 6.25781 32.8359 6.53906 32.6953Z" fill="url(#paint7_linear_710_369)"/>
<path id="Vector_16" d="M22.8516 22.0078L22.7813 22.0781C22.7813 22.0781 22.7812 22.2188 22.9219 22.1484C22.9922 22.0781 25.0312 21.0234 25.7344 20.6016L23.2734 3.72656C23.2031 3.09375 22.9219 2.8125 22.4297 2.60156L22.7109 22.1484L22.8516 22.0078Z" fill="url(#paint8_linear_710_369)"/>
<path id="Vector_17" d="M22.8516 22.0078L22.7813 22.0781C22.7813 22.0781 22.7812 22.2188 22.9219 22.1484C22.9922 22.0781 25.0312 21.0234 25.7344 20.6016L23.2734 3.72656C23.2031 3.09375 22.9219 2.8125 22.4297 2.60156L22.7109 22.1484L22.8516 22.0078Z" fill="url(#paint9_linear_710_369)"/>
<path id="Vector_18" d="M3.58594 31.2188C3.09375 30.0938 0.28125 24.6094 3.375 14.0625H2.17969C1.54687 16.1719 1.05469 17.4375 0.773438 19.3359C0.773438 19.3359 0.632813 20.0391 0.5625 20.8125C0.492188 21.5859 0.492188 22.0078 0.492188 22.5C0.492188 26.7187 1.54688 29.1797 1.54688 29.1797C2.67188 32.6953 4.64062 35.8594 7.3125 38.25C9.63281 40.2891 13.2188 41.8359 16.1719 42.3984C15.6797 42.3281 7.24219 38.7422 3.58594 31.2188Z" fill="url(#paint10_linear_710_369)"/>
<path id="Vector_19" d="M22.7813 22.9219H22.1484C22.2188 22.9219 22.2891 22.9219 22.2891 22.9923L22.4297 26.2266H22.5L22.6406 22.9923C22.6406 22.9219 22.7109 22.8516 22.7813 22.9219Z" fill="url(#paint11_linear_710_369)"/>
<path id="Vector_20" d="M29.5312 1.61719C36.9141 4.42969 43.875 12.1641 43.875 21.9375C43.875 33.75 34.4531 43.3828 22.5 43.3828V44.5078C34.4531 44.5078 44.5078 34.6641 44.5078 22.5C44.5078 12.7969 38.3203 4.64063 29.5312 1.61719Z" fill="url(#paint12_linear_710_369)"/>
<path id="Vector_21" d="M41.3437 14.2031C36.4219 2.88281 25.3125 2.25 24.6797 2.17969H24.6094C33.1172 3.72656 38.5312 9.28125 40.4297 15.1172V15.1875C41.2734 17.4375 41.6953 19.8281 41.7656 22.4297C41.8359 24.8906 41.2734 27.6328 40.2187 30.1641C40.1484 30.5156 40.0781 30.9375 40.0078 30.9375H41.1328C44.5078 24.6094 43.0312 18.2109 41.3437 14.2031Z" fill="url(#paint13_linear_710_369)"/>
<path id="Vector_22" d="M1.54688 22.5703C1.54688 11.0391 10.8984 1.54688 22.5 1.54688C34.1016 1.54688 43.4531 10.9687 43.4531 22.5703C43.4531 34.1016 34.1016 43.4531 22.5 43.4531C10.8984 43.4531 1.54688 34.1016 1.54688 22.5703ZM8.08594 8.08594C4.35938 11.8125 2.03906 16.9453 2.03906 22.5703C2.03906 28.1953 4.35938 33.3281 8.01562 36.9844C11.7422 40.6406 16.875 42.9609 22.5 42.9609C28.125 42.9609 33.2578 40.7109 36.9141 36.9844C40.6406 33.3281 42.8906 28.1953 42.8906 22.5703C42.8906 16.9453 40.5703 11.8125 36.9141 8.08594C33.2578 4.35938 28.125 2.03906 22.5 2.03906C16.875 2.03906 11.7422 4.35938 8.08594 8.08594Z" fill="#FBFBFB"/>
<path id="Vector_23" d="M5.55469 31.5L19.8984 21.1641C20.6719 21.5859 21.9375 22.1484 22.0781 22.1484C22.2188 22.2187 22.2188 22.0781 22.2188 22.0781L20.4609 20.6016C20.25 20.4609 20.1797 20.25 20.1797 20.0391L21.8672 3.09375C21.7969 3.16406 21.7969 3.30469 21.7266 3.375C21.6562 3.51563 21.6562 3.58594 21.6562 3.72656L19.1953 20.6719L5.69531 31.2891C5.625 31.3594 5.55469 31.4297 5.55469 31.5Z" fill="#333F47"/>
</g>
<defs>
<linearGradient id="paint0_linear_710_369" x1="5.62359" y1="8.36578" x2="39.3764" y2="36.6342" gradientUnits="userSpaceOnUse">
<stop stop-color="white"/>
<stop offset="0.1" stop-color="#CDD0D0"/>
<stop offset="0.2" stop-color="#A5ACAF"/>
<stop offset="0.3" stop-color="#98A0A4"/>
<stop offset="0.4" stop-color="#828A8F"/>
<stop offset="0.5" stop-color="#667075"/>
<stop offset="0.6" stop-color="#535C63"/>
<stop offset="0.7" stop-color="#475158"/>
<stop offset="0.8" stop-color="#434D54"/>
<stop offset="1" stop-color="#475157"/>
</linearGradient>
<linearGradient id="paint1_linear_710_369" x1="6.6593" y1="9.18211" x2="38.2999" y2="35.7602" gradientUnits="userSpaceOnUse">
<stop stop-color="#0B1F2A"/>
<stop offset="0.2" stop-color="#333F47"/>
<stop offset="0.5" stop-color="#81898D"/>
<stop offset="0.7" stop-color="#B3B8B8"/>
<stop offset="0.8" stop-color="#DEE0DD"/>
<stop offset="1" stop-color="#FBFBFB"/>
</linearGradient>
<linearGradient id="paint2_linear_710_369" x1="30.1901" y1="43.638" x2="14.7916" y2="1.31063" gradientUnits="userSpaceOnUse">
<stop stop-color="#E1E3E1"/>
<stop offset="0.1" stop-color="#C1C5C4"/>
<stop offset="0.3" stop-color="#9BA1A2"/>
<stop offset="0.5" stop-color="#7D8487"/>
<stop offset="0.7" stop-color="#687074" stop-opacity="0"/>
<stop offset="0.8" stop-color="#5B6469" stop-opacity="0"/>
<stop offset="1" stop-color="#576065" stop-opacity="0"/>
</linearGradient>
<linearGradient id="paint3_linear_710_369" x1="12.7976" y1="5.69602" x2="32.2024" y2="39.304" gradientUnits="userSpaceOnUse">
<stop stop-color="#E1E3E1"/>
<stop offset="0.1" stop-color="#C1C5C4"/>
<stop offset="0.3" stop-color="#9BA1A2"/>
<stop offset="0.5" stop-color="#7D8487"/>
<stop offset="0.7" stop-color="#687074" stop-opacity="0"/>
<stop offset="0.8" stop-color="#5B6469" stop-opacity="0"/>
<stop offset="1" stop-color="#576065" stop-opacity="0"/>
</linearGradient>
<linearGradient id="paint4_linear_710_369" x1="31.2806" y1="27.6983" x2="30.0853" y2="29.667" gradientUnits="userSpaceOnUse">
<stop stop-color="#27343C"/>
<stop offset="1" stop-color="#00111E" stop-opacity="0"/>
</linearGradient>
<linearGradient id="paint5_linear_710_369" x1="27.8297" y1="20.4694" x2="25.8609" y2="17.3053" gradientUnits="userSpaceOnUse">
<stop offset="0.1" stop-color="#02131F"/>
<stop offset="0.9" stop-color="#02131F" stop-opacity="0"/>
</linearGradient>
<linearGradient id="paint6_linear_710_369" x1="22.4873" y1="25.5488" x2="19.5342" y2="26.3926" gradientUnits="userSpaceOnUse">
<stop offset="0.2" stop-color="#02131F"/>
<stop offset="0.9" stop-color="#02131F" stop-opacity="0"/>
</linearGradient>
<linearGradient id="paint7_linear_710_369" x1="14.6187" y1="29.4637" x2="14.1968" y2="28.4091" gradientUnits="userSpaceOnUse">
<stop stop-color="#02131F"/>
<stop offset="0.1" stop-color="#02131F"/>
<stop offset="1" stop-color="#02131F" stop-opacity="0"/>
</linearGradient>
<linearGradient id="paint8_linear_710_369" x1="25.0327" y1="12.1036" x2="22.642" y2="12.3848" gradientUnits="userSpaceOnUse">
<stop offset="0.3" stop-color="#02131F"/>
<stop offset="0.8" stop-color="#02131F" stop-opacity="0"/>
</linearGradient>
<linearGradient id="paint9_linear_710_369" x1="25.1072" y1="12.0635" x2="23.4893" y2="12.2745" gradientUnits="userSpaceOnUse">
<stop offset="0.4" stop-color="#27343C"/>
<stop offset="1" stop-color="#3B474E" stop-opacity="0"/>
</linearGradient>
<linearGradient id="paint10_linear_710_369" x1="-0.253125" y1="23.0843" x2="19.3641" y2="34.4046" gradientUnits="userSpaceOnUse">
<stop stop-color="#25323B" stop-opacity="0"/>
<stop offset="0.1" stop-color="#27343C"/>
</linearGradient>
<linearGradient id="paint11_linear_710_369" x1="22.4648" y1="26.2969" x2="22.4648" y2="22.9219" gradientUnits="userSpaceOnUse">
<stop offset="0.3" stop-color="#A5ABAF"/>
<stop offset="1" stop-color="#A5ABAF" stop-opacity="0"/>
</linearGradient>
<linearGradient id="paint12_linear_710_369" x1="33.5039" y1="1.61719" x2="33.5039" y2="44.5078" gradientUnits="userSpaceOnUse">
<stop stop-color="#6B7378"/>
<stop offset="0.2" stop-color="#333F47"/>
<stop offset="0.5" stop-color="#27343C"/>
<stop offset="0.8" stop-color="#333F47"/>
<stop offset="1" stop-color="#434D54"/>
</linearGradient>
<linearGradient id="paint13_linear_710_369" x1="40.2813" y1="5.69039" x2="30.7891" y2="19.6123" gradientUnits="userSpaceOnUse">
<stop offset="0.7" stop-color="#49545B"/>
<stop offset="0.8" stop-color="white" stop-opacity="0"/>
</linearGradient>
</defs>
</svg>
