<svg width="50" height="44" viewBox="0 0 90 44" fill="none" xmlns="http://www.w3.org/2000/svg">
<path id="Mini Cooper" d="M45 0.0153809C41.6852 0.0159785 38.4239 0.946953 35.5173 2.72237C32.6106 4.49778 30.1522 7.06041 28.3691 10.1737H0L2.82398 13.32H26.8955C26.4382 14.5044 26.0754 15.7312 25.8111 16.9863H6.11466L8.90394 20.094H25.3553C25.3013 20.7277 25.272 21.3638 25.2675 22.0003C25.2727 22.5879 25.299 23.1751 25.3464 23.7603H12.1946L14.9846 26.8688H25.7757C26.0259 28.1221 26.3742 29.3487 26.8166 30.5343H18.2753L21.0986 33.6814H28.3112C30.0842 36.8307 32.5449 39.4276 35.4634 41.2294C38.3818 43.0313 41.6627 43.9792 44.9993 43.9845C48.3362 43.9794 51.6173 43.0317 54.5361 41.2298C57.4548 39.428 59.9157 36.8309 61.6888 33.6814H68.9001L71.7247 30.5343H63.1834C63.6258 29.3487 63.9741 28.1221 64.2243 26.8688H75.0154L77.8047 23.7611H64.6529C64.7003 23.1756 64.7266 22.5882 64.7318 22.0003C64.7276 21.3638 64.6985 20.7278 64.6447 20.094H81.0954L83.8847 16.9863H64.1876C63.9237 15.7312 63.5613 14.5044 63.1045 13.32H87.1753L90 10.1737H61.6309C59.8478 7.06041 57.3894 4.49778 54.4827 2.72237C51.5761 0.946953 48.3148 0.0159785 45 0.0153809ZM45 2.99572C49.5239 2.99572 53.8626 4.99799 57.0615 8.56204C60.2604 12.1261 62.0575 16.96 62.0575 22.0003C62.0575 27.0407 60.2604 31.8746 57.0615 35.4386C53.8626 39.0027 49.5239 41.0049 45 41.0049C42.7599 41.005 40.5418 40.5135 38.4722 39.5585C36.4026 38.6035 34.5221 37.2036 32.9381 35.4389C31.3541 33.6741 30.0976 31.579 29.2403 29.2732C28.3831 26.9675 27.9418 24.4961 27.9418 22.0003C27.9418 19.5045 28.3831 17.0332 29.2403 14.7274C30.0976 12.4216 31.3541 10.3265 32.9381 8.56177C34.5221 6.79702 36.4026 5.39717 38.4722 4.44214C40.5418 3.48712 42.7599 2.99562 45 2.99572ZM31.4305 17.0743V26.9256H33.2741V19.1716L35.2198 26.9256H37.1301L39.082 19.1716V26.9256H40.9256V17.0743H37.9486L36.1852 23.7944L34.4014 17.0743H31.4305ZM42.8509 17.0743V26.9256H44.8354V17.0743H42.8509ZM46.7402 17.0743V26.9256H48.5839V20.5018L52.5474 26.9256H54.5394V17.0743H52.6957V23.6535L48.6717 17.0743H46.7402ZM56.5844 17.0743V26.9256H58.5695V17.0743H56.5844Z" fill="#120A08"/>
</svg>