<svg width="50" height="33" viewBox="0 0 50 33" fill="none" xmlns="http://www.w3.org/2000/svg">
<g id="Motorcycle">
<path id="Vector" fill-rule="evenodd" clip-rule="evenodd" d="M41.3124 29.1041C38.9767 29.1041 37.0833 27.3086 37.0833 25.0937C37.0833 22.8788 38.9767 21.0833 41.3124 21.0833C43.6481 21.0833 45.5416 22.8788 45.5416 25.0937C45.5416 27.3086 43.6481 29.1041 41.3124 29.1041ZM41.3124 32.5416C36.9746 32.5416 33.4583 29.2071 33.4583 25.0937C33.4583 20.9802 36.9746 17.6458 41.3124 17.6458C45.6502 17.6458 49.1666 20.9802 49.1666 25.0937C49.1666 29.2071 45.6502 32.5416 41.3124 32.5416Z" fill="#E49756"/>
<path id="Vector_2" fill-rule="evenodd" clip-rule="evenodd" d="M31.5439 1.14346C31.351 0.727179 30.917 0.458252 30.4374 0.458252H23.7916V2.74992H29.6483L40.206 25.5543C40.4743 26.1337 41.1871 26.3973 41.7982 26.1428C42.4092 25.8884 42.687 25.2125 42.4188 24.633L31.5439 1.14346ZM8.68742 29.1041C6.35171 29.1041 4.45825 27.3086 4.45825 25.0937C4.45825 22.8788 6.35171 21.0833 8.68742 21.0833C11.0231 21.0833 12.9166 22.8788 12.9166 25.0937C12.9166 27.3086 11.0231 29.1041 8.68742 29.1041ZM8.68742 32.5416C4.34968 32.5416 0.833252 29.2071 0.833252 25.0937C0.833252 20.9802 4.34968 17.6458 8.68742 17.6458C13.0252 17.6458 16.5416 20.9802 16.5416 25.0937C16.5416 29.2071 13.0252 32.5416 8.68742 32.5416Z" fill="#E49756"/>
<path id="Vector_3" fill-rule="evenodd" clip-rule="evenodd" d="M36.6371 15.0378C36.1192 14.6387 35.3582 14.7135 34.9373 15.2046L27.4457 23.948H8.68758C8.02023 23.948 7.47925 24.4609 7.47925 25.0938C7.47925 25.7266 8.02023 26.2396 8.68758 26.2396H28.0209C28.3847 26.2396 28.7292 26.0841 28.9587 25.8163L36.8129 16.6497C37.2337 16.1586 37.1549 15.4369 36.6371 15.0378Z" fill="#E49756"/>
<path id="Vector_4" d="M29.8333 17.6459H17.1458C16.1449 17.6459 15.3333 18.4155 15.3333 19.3647C15.3333 20.3139 16.1449 21.0834 17.1458 21.0834H26.2083C28.2104 21.0834 29.8333 19.5444 29.8333 17.6459ZM29.7634 8.47925H24.619C20.823 8.47925 18.0377 11.8621 18.9583 15.3542H31.5031C32.4014 15.3542 32.9856 14.4579 32.584 13.696L29.8646 8.5386C29.8454 8.50228 29.8063 8.47925 29.7634 8.47925ZM3.25 10.7709C3.25 10.1381 3.791 9.62508 4.45833 9.62508H10.6171C12.4524 9.62508 14.1883 10.4162 15.3348 11.7752L16.7836 13.4926C17.4166 14.2429 16.8533 15.3542 15.8401 15.3542H4.45833C3.791 15.3542 3.25 14.8413 3.25 14.2084V10.7709ZM37.0833 7.90633L44.4139 5.04175L45.5417 11.9167L38.2111 10.7709L37.0833 7.90633Z" fill="#E49756"/>
<path id="Vector_5" fill-rule="evenodd" clip-rule="evenodd" d="M23.3394 25.6502L20.3186 20.4939L22.4313 19.3811L25.4521 24.5374L23.3394 25.6502Z" fill="#E49756"/>
</g>
</svg>
