<svg width="31" height="31" viewBox="0 0 31 31" fill="none" xmlns="http://www.w3.org/2000/svg">
<g id="notif">
<path id="Vector" d="M17.5552 28.2411C17.277 28.6756 16.8776 29.0363 16.397 29.287C15.9165 29.5378 15.3717 29.6697 14.8172 29.6697C14.2626 29.6697 13.7178 29.5378 13.2373 29.287C12.7567 29.0363 12.3574 28.6756 12.0791 28.2411" stroke="black" stroke-width="2" stroke-linecap="round" stroke-linejoin="round"/>
<path id="Vector_2" d="M24.7404 9.60243C24.7404 7.32092 23.7399 5.13286 21.959 3.51959C20.1782 1.90632 17.7628 1 15.2442 1C12.7257 1 10.3103 1.90632 8.52944 3.51959C6.74856 5.13286 5.74808 7.32092 5.74808 9.60243C5.74808 19.6386 1 22.5061 1 22.5061H29.4885C29.4885 22.5061 24.7404 19.6386 24.7404 9.60243Z" stroke="black" stroke-width="2" stroke-linecap="round" stroke-linejoin="round"/>
</g>
</svg>
