<svg width="29" height="28" viewBox="0 0 27 26" fill="none" xmlns="http://www.w3.org/2000/svg">
<path id="Vector" d="M24.7457 1L22.2372 3.52299M22.2372 3.52299L26 7.30747L21.6101 11.7227L17.8472 7.93822M22.2372 3.52299L17.8472 7.93822M12.6922 13.123C13.3398 13.7656 13.8547 14.5308 14.207 15.3745C14.5594 16.2181 14.7424 17.1235 14.7455 18.0385C14.7485 18.9536 14.5716 19.8602 14.2248 20.7062C13.878 21.5522 13.3683 22.3208 12.725 22.9678C12.0817 23.6149 11.3174 24.1275 10.4763 24.4763C9.63514 24.8251 8.73372 25.003 7.82391 25C6.91411 24.9969 6.01389 24.8129 5.1751 24.4584C4.3363 24.104 3.57549 23.5862 2.93649 22.9349C1.67987 21.6263 0.984543 19.8737 1.00026 18.0545C1.01598 16.2353 1.74148 14.4951 3.02052 13.2087C4.29955 11.9223 6.02978 11.1927 7.83854 11.1768C9.6473 11.161 11.3899 11.8604 12.6909 13.1242L12.6922 13.123ZM12.6922 13.123L17.8472 7.93822" stroke="black" stroke-width="2" stroke-linecap="round" stroke-linejoin="round"/>
</svg>
