<svg width="29" height="25" viewBox="0 0 33 33" fill="none" xmlns="http://www.w3.org/2000/svg">
<path id="Vector" d="M16.454 9.76268V16.6516L19.9073 20.096M1 14.9293C1.38693 11.1405 3.15879 7.62637 5.97751 5.05742C8.79624 2.48848 12.4645 1.04451 16.2825 1.00101C20.1005 0.957516 23.8009 2.31754 26.6777 4.8216C29.5545 7.32566 31.4064 10.7985 31.88 14.5775C32.3535 18.3564 31.4157 22.1771 29.2454 25.3104C27.0751 28.4437 23.8242 30.6704 20.1129 31.5656C16.4017 32.4609 12.4899 31.962 9.12395 30.1641C5.75796 28.3663 3.17339 25.3953 1.86333 21.8181M1 30.4292V21.8181H9.63332" stroke="black" stroke-width="2" stroke-linecap="round" stroke-linejoin="round"/>
</svg>
