<svg width="25" height="25" viewBox="0 0 32 31" fill="none" xmlns="http://www.w3.org/2000/svg">
<g id="settings" clip-path="url(#clip0_710_255)">
<path id="Vector" d="M16 19.375C18.2091 19.375 20 17.6401 20 15.5C20 13.3599 18.2091 11.625 16 11.625C13.7909 11.625 12 13.3599 12 15.5C12 17.6401 13.7909 19.375 16 19.375Z" stroke="black" stroke-width="2" stroke-linecap="round" stroke-linejoin="round"/>
<path id="Vector_2" d="M25.8667 19.375C25.6892 19.7645 25.6363 20.1967 25.7147 20.6157C25.7931 21.0347 25.9993 21.4214 26.3067 21.7258L26.3867 21.8033C26.6346 22.0432 26.8313 22.3281 26.9655 22.6417C27.0997 22.9554 27.1688 23.2915 27.1688 23.631C27.1688 23.9705 27.0997 24.3067 26.9655 24.6203C26.8313 24.9339 26.6346 25.2188 26.3867 25.4587C26.139 25.6989 25.8449 25.8894 25.5212 26.0194C25.1975 26.1495 24.8505 26.2164 24.5 26.2164C24.1496 26.2164 23.8026 26.1495 23.4789 26.0194C23.1551 25.8894 22.861 25.6989 22.6134 25.4587L22.5334 25.3812C22.2191 25.0834 21.82 24.8837 21.3875 24.8077C20.955 24.7317 20.5089 24.783 20.1067 24.955C19.7123 25.1187 19.376 25.3906 19.1391 25.7371C18.9022 26.0837 18.7751 26.4897 18.7734 26.9054V27.125C18.7734 27.8101 18.4924 28.4672 17.9923 28.9517C17.4922 29.4361 16.8139 29.7083 16.1067 29.7083C15.3995 29.7083 14.7212 29.4361 14.2211 28.9517C13.721 28.4672 13.44 27.8101 13.44 27.125V27.0087C13.4297 26.5812 13.2869 26.1665 13.0301 25.8187C12.7732 25.4709 12.4144 25.2059 12 25.0583C11.5979 24.8864 11.1518 24.8351 10.7193 24.911C10.2867 24.987 9.88761 25.1868 9.57337 25.4845L9.49337 25.562C9.24571 25.8022 8.95161 25.9928 8.62788 26.1228C8.30415 26.2528 7.95715 26.3197 7.60671 26.3197C7.25627 26.3197 6.90926 26.2528 6.58553 26.1228C6.2618 25.9928 5.9677 25.8022 5.72004 25.562C5.4721 25.3221 5.27541 25.0372 5.14121 24.7236C5.00702 24.41 4.93794 24.0738 4.93794 23.7343C4.93794 23.3948 5.00702 23.0587 5.14121 22.7451C5.27541 22.4315 5.4721 22.1465 5.72004 21.9066L5.80004 21.8291C6.10742 21.5247 6.31362 21.1381 6.39205 20.7191C6.47047 20.3 6.41753 19.8679 6.24004 19.4783C6.07102 19.0963 5.79038 18.7704 5.43266 18.5409C5.07494 18.3114 4.65576 18.1883 4.22671 18.1866H4.00004C3.2928 18.1866 2.61452 17.9145 2.11442 17.43C1.61433 16.9455 1.33337 16.2884 1.33337 15.6033C1.33337 14.9182 1.61433 14.2611 2.11442 13.7766C2.61452 13.2921 3.2928 13.02 4.00004 13.02H4.12004C4.56137 13.01 4.98938 12.8716 5.34844 12.6228C5.7075 12.374 5.98099 12.0263 6.13337 11.625C6.31086 11.2354 6.3638 10.8032 6.28538 10.3842C6.20695 9.96519 6.00076 9.57855 5.69337 9.27413L5.61337 9.19663C5.36544 8.9567 5.16875 8.67179 5.03455 8.35818C4.90035 8.04457 4.83128 7.70841 4.83128 7.36892C4.83128 7.02943 4.90035 6.69327 5.03455 6.37966C5.16875 6.06604 5.36544 5.78113 5.61337 5.54121C5.86103 5.30102 6.15514 5.11048 6.47887 4.98047C6.80259 4.85047 7.1496 4.78355 7.50004 4.78355C7.85048 4.78355 8.19749 4.85047 8.52121 4.98047C8.84494 5.11048 9.13904 5.30102 9.38671 5.54121L9.46671 5.61871C9.78094 5.91649 10.1801 6.11624 10.6126 6.19222C11.0451 6.26819 11.4912 6.2169 11.8934 6.04496H12C12.3944 5.88122 12.7307 5.60935 12.9676 5.26281C13.2045 4.91627 13.3317 4.51018 13.3334 4.09454V3.87496C13.3334 3.18982 13.6143 2.53274 14.1144 2.04827C14.6145 1.5638 15.2928 1.29163 16 1.29163C16.7073 1.29163 17.3856 1.5638 17.8857 2.04827C18.3858 2.53274 18.6667 3.18982 18.6667 3.87496V3.99121C18.6684 4.40685 18.7955 4.81294 19.0324 5.15948C19.2693 5.50602 19.6057 5.77789 20 5.94163C20.4022 6.11357 20.8483 6.16486 21.2808 6.08888C21.7133 6.01291 22.1125 5.81315 22.4267 5.51538L22.5067 5.43788C22.7544 5.19769 23.0485 5.00714 23.3722 4.87714C23.6959 4.74713 24.0429 4.68022 24.3934 4.68022C24.7438 4.68022 25.0908 4.74713 25.4145 4.87714C25.7383 5.00714 26.0324 5.19769 26.28 5.43788C26.528 5.6778 26.7247 5.96271 26.8589 6.27632C26.9931 6.58993 27.0621 6.92609 27.0621 7.26558C27.0621 7.60507 26.9931 7.94124 26.8589 8.25485C26.7247 8.56846 26.528 8.85337 26.28 9.09329L26.2 9.17079C25.8927 9.47521 25.6865 9.86186 25.608 10.2809C25.5296 10.6999 25.5825 11.132 25.76 11.5216V11.625C25.9291 12.007 26.2097 12.3328 26.5674 12.5623C26.9251 12.7918 27.3443 12.915 27.7734 12.9166H28C28.7073 12.9166 29.3856 13.1888 29.8857 13.6733C30.3858 14.1577 30.6667 14.8148 30.6667 15.5C30.6667 16.1851 30.3858 16.8422 29.8857 17.3267C29.3856 17.8111 28.7073 18.0833 28 18.0833H27.88C27.451 18.085 27.0318 18.2081 26.6741 18.4376C26.3164 18.6671 26.0357 18.9929 25.8667 19.375Z" stroke="black" stroke-width="2" stroke-linecap="round" stroke-linejoin="round"/>
</g>
<defs>
<clipPath id="clip0_710_255">
<rect width="32" height="31" fill="white"/>
</clipPath>
</defs>
</svg>
