<svg width="25" height="25" viewBox="0 0 34 33" fill="none" xmlns="http://www.w3.org/2000/svg">
<path id="Vector" d="M31.3945 1L28.1836 4.25886M28.1836 4.25886L33 9.14715L27.3809 14.8502L22.5645 9.96187M28.1836 4.25886L22.5645 9.96187M15.966 16.6588C16.795 17.489 17.454 18.4773 17.905 19.567C18.3561 20.6567 18.5903 21.8262 18.5942 23.0081C18.5981 24.19 18.3716 25.3611 17.9278 26.4538C17.4839 27.5465 16.8315 28.5394 16.008 29.3751C15.1845 30.2109 14.2063 30.8731 13.1296 31.3236C12.053 31.774 10.8992 32.0039 9.73461 31.9999C8.57006 31.996 7.41778 31.7583 6.34412 31.3005C5.27046 30.8427 4.29663 30.1739 3.4787 29.3325C1.87024 27.6423 0.980215 25.3785 1.00033 23.0287C1.02045 20.679 1.9491 18.4312 3.58626 16.7696C5.22343 15.108 7.43812 14.1655 9.75333 14.1451C12.0685 14.1247 14.299 15.028 15.9644 16.6605L15.966 16.6588ZM15.966 16.6588L22.5645 9.96187" stroke="black" stroke-width="2" stroke-linecap="round" stroke-linejoin="round"/>
</svg>
