<svg width="70" height="50" viewBox="0 0 178 68" fill="none" xmlns="http://www.w3.org/2000/svg">
<g filter="url(#filter0_d_710_1102)">

</g>
<path d="M41.3773 22C34.5447 22 29 25.8077 29 30.4999C29 35.192 34.545 39 41.3773 39C48.2103 39 53.7546 35.192 53.7546 30.4999C53.7546 25.8077 48.2103 22 41.3773 22Z" fill="url(#paint0_radial_710_1102)"/>
<path opacity="0.66" d="M41.4194 22.5503C34.8779 22.5503 29.5693 26.1956 29.5693 30.6884C29.5693 35.1806 34.8779 38.8287 41.4194 38.8287C47.9613 38.8287 53.2736 35.1809 53.2736 30.6884C53.2736 26.1956 47.9613 22.5503 41.4194 22.5503ZM41.4232 22.7394C41.492 22.7394 41.5631 22.7543 41.6185 22.7815C41.6798 22.8113 41.7244 22.8532 41.7491 22.9008V22.9033L41.7524 22.9059L42.1476 23.8906C47.2867 24.1468 51.3466 27.0939 51.3466 30.6883C51.3466 31.7491 50.9922 32.7548 50.3617 33.6506L51.3791 34.3544L51.3829 34.357L51.3866 34.3593C51.4371 34.3996 51.4637 34.4464 51.4697 34.4939C51.4761 34.5417 51.463 34.5921 51.4259 34.6353C51.3911 34.6769 51.3383 34.7113 51.2703 34.7324C51.2033 34.7535 51.1304 34.7586 51.06 34.7496H51.0529H51.0495L49.6515 34.4986C47.8663 36.3123 44.8432 37.5056 41.4194 37.5056C37.996 37.5056 34.9752 36.3123 33.1911 34.4986L31.7973 34.7525H31.7932H31.786C31.7079 34.7622 31.6364 34.7514 31.5761 34.7324C31.5091 34.7114 31.4556 34.6772 31.4205 34.6353C31.3864 34.5947 31.37 34.5441 31.3771 34.4966C31.3838 34.4488 31.4096 34.4025 31.4605 34.3619L31.4639 34.3594L31.4676 34.3571L32.4817 33.6532C31.85 32.7564 31.4968 31.7504 31.4968 30.6884C31.4968 27.093 35.5571 24.1446 40.6991 23.8907L41.0872 22.9085L41.0905 22.9034V22.9008C41.1149 22.8533 41.1598 22.8114 41.2211 22.7816C41.2836 22.7512 41.3539 22.7394 41.4232 22.7394ZM41.4232 22.8386C41.3813 22.8386 41.3378 22.8468 41.3034 22.8638C41.2694 22.8802 41.2413 22.9059 41.2278 22.9334L40.3657 25.122C40.3436 25.1646 40.3342 25.216 40.3545 25.2589C40.3751 25.3016 40.4128 25.3355 40.4671 25.361C40.6217 25.4342 40.68 25.5724 40.753 25.7066C40.8256 25.8407 40.8376 25.9561 40.7856 26.0948C40.7332 26.2334 40.6176 26.3595 40.4593 26.4528C40.1749 26.6201 39.9197 26.822 39.7607 27.0595C39.6017 27.2972 39.547 27.5513 39.547 27.8083V28.4397L35.0924 26.6741L34.5995 27.2558L39.547 29.2157V29.927L38.6561 30.2803L33.709 28.3179L33.2162 28.905L37.6708 30.6709L36.8738 30.987C36.5498 31.1149 36.2605 31.2758 36.0409 31.4891C35.8209 31.7026 35.6892 31.9554 35.6207 32.2078C35.5821 32.3486 35.4837 32.4807 35.3344 32.5809C35.1859 32.6811 35.0328 32.7287 34.827 32.7523C34.622 32.7757 34.4214 32.815 34.2515 32.76C34.1928 32.741 34.1277 32.7353 34.0637 32.7448C33.9997 32.7538 33.9361 32.778 33.8931 32.8119L31.572 34.4261C31.5443 34.4477 31.5249 34.477 31.5211 34.5058C31.517 34.5346 31.5256 34.5602 31.5465 34.5854C31.5675 34.6104 31.5986 34.633 31.6371 34.6451C31.6753 34.6569 31.7187 34.6605 31.7598 34.6551L34.9542 34.0731C35.0186 34.0654 35.0845 34.0443 35.1279 34.0109C35.1717 33.9775 35.199 33.9364 35.2042 33.8917C35.2192 33.7627 35.3648 33.6614 35.4976 33.5509C35.6308 33.4409 35.7715 33.3752 35.972 33.3369C36.173 33.2986 36.3874 33.3071 36.5845 33.3546C36.9374 33.4399 37.3209 33.4882 37.6996 33.4641C38.0791 33.4399 38.4263 33.3461 38.75 33.2176L39.547 32.9013V36.4335H40.5288V32.5138L41.4231 32.1582L42.3144 32.5112V36.4335H43.2989V32.9013L44.0959 33.2177C44.4199 33.3459 44.7672 33.4399 45.1462 33.4641C45.5256 33.488 45.9088 33.4369 46.2617 33.3515C46.4585 33.3042 46.6766 33.2986 46.8772 33.3367C47.0777 33.3752 47.2117 33.441 47.3442 33.5505C47.4766 33.6609 47.6263 33.7601 47.6409 33.8886C47.6465 33.9334 47.6734 33.9744 47.7172 34.0081C47.761 34.0418 47.8231 34.0695 47.8875 34.0777L51.0853 34.6526C51.126 34.658 51.1702 34.6546 51.2084 34.6428C51.2469 34.6308 51.2776 34.6104 51.2986 34.5855C51.3195 34.5603 51.3281 34.5321 51.324 34.5033C51.3199 34.4745 51.3042 34.4455 51.2765 34.4234L48.9475 32.8145C48.9052 32.7806 48.8446 32.7518 48.781 32.7425C48.7167 32.7333 48.6515 32.7379 48.5928 32.7574C48.4226 32.8127 48.2228 32.776 48.0173 32.7523C47.8115 32.7287 47.6584 32.6788 47.5099 32.5786C47.361 32.4779 47.2622 32.3458 47.2237 32.2055C47.1552 31.9521 47.0276 31.6998 46.8076 31.4865C46.5872 31.2727 46.2916 31.1149 45.9672 30.9869L45.1743 30.6709L49.629 28.905L49.1365 28.3207L44.1894 30.2828L43.2981 29.9298V29.2185L48.2456 27.2584L47.7529 26.6741L43.2982 28.4399V27.8083C43.2982 27.5511 43.2402 27.2972 43.0816 27.0595C42.9222 26.8221 42.6662 26.6201 42.3822 26.4528C42.2239 26.3595 42.1087 26.2334 42.0563 26.0949C42.0042 25.9563 42.0196 25.8407 42.0922 25.7066C42.1655 25.5727 42.216 25.434 42.3713 25.361C42.4248 25.3353 42.4671 25.3016 42.4869 25.2589C42.5075 25.2163 42.509 25.1646 42.4869 25.122L41.6106 22.9335C41.5967 22.906 41.5725 22.8805 41.5384 22.8638C41.5051 22.8468 41.4654 22.8386 41.4232 22.8386ZM41.4232 27.0693C41.6567 27.0693 41.8879 27.1351 42.0533 27.2486C42.2191 27.3622 42.3145 27.521 42.3145 27.6813V28.8305L41.4232 29.1835L40.5289 28.8279V27.6813C40.5289 27.521 40.6242 27.3624 40.7893 27.2486C40.9547 27.1348 41.1893 27.0693 41.4232 27.0693ZM41.4269 29.9619L42.3145 30.3152V31.0263L41.4269 31.3796L40.5289 31.0237V30.3173L41.4269 29.9619ZM38.6564 31.0615L39.5473 31.4145V32.1258L38.1026 32.6978C37.9002 32.778 37.6514 32.7991 37.425 32.7577C37.199 32.7158 36.9992 32.6104 36.882 32.4717C36.7653 32.3329 36.7346 32.1618 36.7952 32.0066C36.8559 31.8508 37.0055 31.7159 37.2083 31.636L38.6564 31.0615ZM44.1936 31.0615L45.6387 31.6335C45.8408 31.7136 45.9942 31.8486 46.0552 32.004C46.1162 32.1593 46.0817 32.3324 45.9646 32.4714C45.8479 32.61 45.6469 32.7132 45.4213 32.7549C45.1953 32.796 44.9502 32.7749 44.7477 32.6952L43.2989 32.1207V31.414L44.1936 31.0615Z" fill="black"/>
<path d="M41.376 22.3613C34.8341 22.3613 29.5259 26.0064 29.5259 30.4991C29.5259 34.9919 34.8341 38.6398 41.376 38.6398C47.9182 38.6398 53.2294 34.9919 53.2294 30.4991C53.2294 26.0064 47.9179 22.3613 41.376 22.3613ZM41.3793 22.5502C41.4478 22.5502 41.5193 22.5651 41.5746 22.5926C41.636 22.6227 41.6805 22.6643 41.7049 22.7121V22.7144L41.7086 22.7172L42.1034 23.7019C47.2424 23.9578 51.3027 26.9052 51.3027 30.4991C51.3027 31.5599 50.9483 32.5651 50.3178 33.4614L51.3356 34.1655L51.339 34.1678L51.3427 34.1703C51.3929 34.2107 51.4194 34.2572 51.4258 34.3045C51.4329 34.3525 51.4191 34.4029 51.3828 34.446C51.3476 34.4877 51.2948 34.5221 51.2271 34.5432C51.1601 34.5645 51.0868 34.5699 51.0172 34.5606H51.0097H51.006L49.608 34.3093C47.8232 36.123 44.7997 37.3163 41.3764 37.3163C37.9522 37.3163 34.9317 36.123 33.1473 34.3093L31.7534 34.5632H31.7497H31.7422C31.664 34.5729 31.5925 34.5622 31.5323 34.5432C31.4657 34.5221 31.4117 34.4882 31.3766 34.446C31.3426 34.4059 31.3261 34.3551 31.3336 34.3073C31.3395 34.2597 31.3661 34.2132 31.4167 34.1726L31.4204 34.1703L31.4241 34.1678L32.4382 33.4639C31.8062 32.5674 31.453 31.5611 31.453 30.4991C31.453 26.9034 35.514 23.9553 40.6561 23.7019L41.0434 22.7193L41.0467 22.7141V22.7118C41.0714 22.6638 41.116 22.6221 41.177 22.5923C41.2394 22.5618 41.3105 22.5502 41.3793 22.5502ZM41.3793 22.6496C41.337 22.6496 41.294 22.6579 41.2596 22.6746C41.2251 22.6913 41.1975 22.7167 41.184 22.7442L40.3219 24.9328C40.3002 24.9754 40.2908 25.0248 40.311 25.0674C40.3316 25.1101 40.3698 25.1463 40.4233 25.1715C40.5782 25.2449 40.6362 25.3829 40.7095 25.5173C40.7825 25.6512 40.7941 25.7668 40.7421 25.9054C40.6905 26.0441 40.5707 26.1703 40.4124 26.2633C40.1284 26.4306 39.8762 26.6328 39.7172 26.87C39.5578 27.1077 39.5039 27.3619 39.5039 27.6191V28.2507L35.0488 26.4848L34.5564 27.0666L39.5039 29.0264V29.7374L38.6126 30.0908L33.665 28.1284L33.1722 28.7127L37.6269 30.4811L36.8303 30.7972C36.5062 30.9254 36.2136 31.0861 35.9936 31.2993C35.7732 31.5126 35.6456 31.7655 35.5771 32.0183C35.5386 32.1586 35.4398 32.2907 35.2909 32.3914C35.1419 32.4914 34.9897 32.5389 34.7839 32.5626C34.5784 32.5862 34.3775 32.6256 34.208 32.5701C34.1489 32.5508 34.0834 32.5457 34.0194 32.5554C33.9554 32.5642 33.8918 32.5878 33.8491 32.6223L31.5243 34.2363C31.4966 34.2583 31.4809 34.2874 31.4768 34.3162C31.4723 34.3447 31.4813 34.3706 31.5019 34.3958C31.5232 34.4208 31.5546 34.4411 31.5925 34.4534C31.631 34.4652 31.6744 34.4704 31.7159 34.4655L34.91 33.8834C34.9743 33.8752 35.0402 33.8549 35.084 33.8212C35.127 33.7876 35.1547 33.7467 35.1603 33.702C35.1749 33.573 35.3204 33.4715 35.4533 33.3613C35.5861 33.2505 35.7268 33.1855 35.9277 33.1475C36.1287 33.1089 36.3431 33.1177 36.5395 33.1649C36.8927 33.25 37.2759 33.2985 37.6553 33.2739C38.034 33.25 38.3817 33.1567 38.7053 33.0282L39.5023 32.7119V36.2436H40.4838V32.3241L41.3785 31.9685L42.2694 32.3215V36.2436H43.2546V32.7119L44.0475 33.0282C44.3719 33.1561 44.7222 33.25 45.1012 33.2739C45.4807 33.2985 45.8639 33.2474 46.2171 33.1621C46.4135 33.1148 46.6316 33.1063 46.8326 33.1448C47.0328 33.1834 47.1672 33.2505 47.3 33.3612C47.4321 33.4715 47.5817 33.5709 47.5963 33.6994C47.6019 33.7441 47.6289 33.7852 47.6727 33.8189C47.7161 33.8525 47.7789 33.8798 47.8429 33.8885L51.0407 34.4633C51.0822 34.4685 51.126 34.4654 51.1642 34.4536C51.2027 34.441 51.2338 34.4209 51.2547 34.3957C51.2753 34.3711 51.2835 34.3428 51.2798 34.3138C51.2757 34.2848 51.26 34.256 51.2327 34.2341L48.9037 32.625C48.8614 32.5908 48.8008 32.562 48.7372 32.5533C48.6732 32.544 48.6078 32.5484 48.5486 32.5679C48.3788 32.6234 48.1786 32.5867 47.9731 32.5631C47.7673 32.5389 47.6151 32.4891 47.4661 32.3888C47.3172 32.2886 47.2188 32.1565 47.1799 32.0162C47.1111 31.7629 46.9834 31.5101 46.7634 31.2973C46.5434 31.0834 46.2474 30.9257 45.9234 30.7972L45.1268 30.4812L49.5848 28.713L49.092 28.1309L44.1449 30.0934L43.2536 29.7401V29.0288L48.201 27.0692L47.7086 26.4846L43.254 28.2504V27.6186C43.254 27.3616 43.1963 27.1075 43.0369 26.8698C42.8775 26.6324 42.6219 26.4304 42.3379 26.2631C42.1793 26.1698 42.064 26.0439 42.012 25.9051C41.96 25.7664 41.975 25.6513 42.048 25.5171C42.1209 25.383 42.1722 25.2445 42.3271 25.1713C42.381 25.1458 42.4225 25.1096 42.4431 25.0669C42.4637 25.0245 42.4648 24.9749 42.4431 24.9328L41.5668 22.744C41.5526 22.7168 41.5249 22.6911 41.4908 22.6741C41.4575 22.6579 41.4216 22.6496 41.3793 22.6496ZM41.3793 26.8803C41.6132 26.8803 41.8437 26.9458 42.0095 27.0594C42.1752 27.1733 42.2703 27.3318 42.2703 27.4924V28.6413L41.3793 28.9946L40.4846 28.6387V27.4921C40.4846 27.3315 40.58 27.1732 40.7454 27.0594C40.9112 26.9456 41.1455 26.8803 41.3793 26.8803ZM41.3793 29.773L42.2703 30.126V30.8375L41.3831 31.1904L40.4851 30.8349V30.1286L41.3793 29.773ZM38.6089 30.8699L39.5032 31.2258V31.9368L38.0581 32.5091C37.8556 32.5893 37.6072 32.6098 37.3808 32.5687C37.1544 32.5271 36.9542 32.4217 36.8375 32.2827C36.7203 32.144 36.6897 31.9726 36.7503 31.8179C36.8109 31.6622 36.9606 31.525 37.1634 31.4448L38.6089 30.8699ZM44.1464 30.8699L45.5949 31.4448C45.7977 31.5249 45.9508 31.6596 46.0114 31.8151C46.0724 31.9705 46.0342 32.1437 45.9171 32.2825C45.8003 32.4212 45.6035 32.5245 45.3771 32.5662C45.1515 32.6073 44.9027 32.5862 44.7002 32.506L43.2548 31.934V31.2228L44.1464 30.8699Z" fill="url(#paint1_radial_710_1102)"/>
<path d="M55.8003 23.3584L60.3654 32.9311V37.6068H64.8694V32.9311L69.177 23.3584H65.1055L62.5476 29.579L60.063 23.3584H55.8003Z" fill="#F30711"/>
<path d="M83.916 23.3584V37.6068H87.6624V28.3664L89.8095 37.6068H92.6383L94.7809 28.3664V37.6068H98.5976V23.3584H92.8771L91.2452 30.1364L89.6729 23.3584L83.916 23.3584Z" fill="#F30711"/>
<path d="M115.976 23.3584V37.6068H120.151V31.6016H123.708V37.6068H127.785V23.3584H123.708V29.0268H120.151V23.3584H115.976Z" fill="#F30711"/>
<path d="M133.718 23.3555L130.109 37.6062H134.182L134.985 34.1251H138.106L138.892 37.6062H143L139.391 23.3555H133.718ZM136.579 26.4807L137.641 31.6361H135.473L136.579 26.4807Z" fill="#F30711"/>
<path d="M104.472 23.3555L100.864 37.6062H104.936L105.739 34.1251H108.86L109.646 37.6062H113.755L110.145 23.3555H104.472ZM107.334 26.4807L108.395 31.6361H106.227L107.334 26.4807Z" fill="#F30711"/>
<path d="M72.429 23.3555L68.8203 37.6062H72.893L73.6956 34.1251H76.8167L77.6028 37.6062H81.711L78.102 23.3555H72.429ZM75.2904 26.4807L76.3527 31.6361H74.1839L75.2904 26.4807Z" fill="#F30711"/>
<defs>
<filter id="filter0_d_710_1102" x="0" y="0" width="178" height="68" filterUnits="userSpaceOnUse" color-interpolation-filters="sRGB">
<feFlood flood-opacity="0" result="BackgroundImageFix"/>
<feColorMatrix in="SourceAlpha" type="matrix" values="0 0 0 0 0 0 0 0 0 0 0 0 0 0 0 0 0 0 127 0" result="hardAlpha"/>
<feOffset dy="4"/>
<feGaussianBlur stdDeviation="2"/>
<feComposite in2="hardAlpha" operator="out"/>
<feColorMatrix type="matrix" values="0 0 0 0 0 0 0 0 0 0 0 0 0 0 0 0 0 0 0.25 0"/>
<feBlend mode="normal" in2="BackgroundImageFix" result="effect1_dropShadow_710_1102"/>
<feBlend mode="normal" in="SourceGraphic" in2="effect1_dropShadow_710_1102" result="shape"/>
</filter>
<radialGradient id="paint0_radial_710_1102" cx="0" cy="0" r="1" gradientUnits="userSpaceOnUse" gradientTransform="translate(37.0174 26.4938) scale(16.6791 11.454)">
<stop stop-color="#FD9196"/>
<stop offset="1" stop-color="#F30713"/>
</radialGradient>
<radialGradient id="paint1_radial_710_1102" cx="0" cy="0" r="1" gradientUnits="userSpaceOnUse" gradientTransform="translate(29.1214 22.0838) rotate(34.4786) scale(24.9352 21.0919)">
<stop offset="0.0476" stop-color="#E4EBEE"/>
<stop offset="0.2722" stop-color="#F5F8F9"/>
<stop offset="0.4667" stop-color="white"/>
<stop offset="0.7524" stop-color="#BFC1C3"/>
<stop offset="0.8667" stop-color="#DCE0E6"/>
<stop offset="0.9048" stop-color="#E2E6ED"/>
<stop offset="1" stop-color="#BCBEC0"/>
</radialGradient>
</defs>
</svg>
